<?xml version="1.0" encoding="UTF-8" standalone="no"?>
<svg
   xmlns:dc="http://purl.org/dc/elements/1.1/"
   xmlns:cc="http://creativecommons.org/ns#"
   xmlns:rdf="http://www.w3.org/1999/02/22-rdf-syntax-ns#"
   xmlns:svg="http://www.w3.org/2000/svg"
   xmlns="http://www.w3.org/2000/svg"
   xmlns:sodipodi="http://sodipodi.sourceforge.net/DTD/sodipodi-0.dtd"
   xmlns:inkscape="http://www.inkscape.org/namespaces/inkscape"
   id="SVGRoot"
   version="1.1"
   viewBox="0 0 30.213385 11.906146"
   height="11.906146"
   width="30.213385"
   sodipodi:docname="mapping-platform-logo-red.svg"
   inkscape:version="0.92.4 (5da689c313, 2019-01-14)">
  <sodipodi:namedview
     pagecolor="#ffffff"
     bordercolor="#666666"
     borderopacity="1"
     objecttolerance="10"
     gridtolerance="10"
     guidetolerance="10"
     inkscape:pageopacity="0"
     inkscape:pageshadow="2"
     inkscape:window-width="1920"
     inkscape:window-height="1025"
     id="namedview39"
     showgrid="false"
     inkscape:zoom="29.5"
     inkscape:cx="10.21833"
     inkscape:cy="5.0129783"
     inkscape:window-x="0"
     inkscape:window-y="29"
     inkscape:window-maximized="1"
     inkscape:current-layer="SVGRoot" />
  <defs
     id="defs546" />
  <metadata
     id="metadata549">
    <rdf:RDF>
      <cc:Work
         rdf:about="">
        <dc:format>image/svg+xml</dc:format>
        <dc:type
           rdf:resource="http://purl.org/dc/dcmitype/StillImage" />
        <dc:title></dc:title>
      </cc:Work>
    </rdf:RDF>
  </metadata>
  <g
     id="g268">
    <g
       style="fill:#ff0000"
       transform="matrix(0.20113643,0,0,0.1877759,34.665891,20.186894)"
       id="g1330">
      <g
         style="fill:#ff0000"
         transform="matrix(0.82041601,0,0,0.82041601,-23.910701,-18.959561)"
         id="g1304">
        <path
           inkscape:connector-curvature="0"
           class="cls-1"
           d="m -169.16912,-35.943314 a 22.512,22.512 0 0 0 6.9604,-8.899948 13.164,13.164 0 0 0 0.7966,-7.530404 35.304,35.304 0 0 0 -4.1032,-0.168822 8.7360001,8.7360001 0 0 1 -0.32859,6.237677 18.558,18.558 0 0 1 -5.75423,7.28319 35.724,35.724 0 0 1 -8.11077,4.796638 l -0.75365,0.266067 a 30.6,30.6 0 0 0 2.28152,3.316479 38.952,38.952 0 0 0 9.01192,-5.300877 z"
           id="path1296"
           style="fill:#ff0000;fill-opacity:1;stroke-width:0.60000002" />
        <path
           inkscape:connector-curvature="0"
           class="cls-1"
           d="m -168.23709,-52.063706 a 9.5827731,9.5827731 0 0 0 -4.60427,-1.383287 4.0730128,4.0730128 0 0 0 -2.98042,1.10262 15.122605,15.122605 0 0 0 0.76515,1.436747 2.8166939,2.8166939 0 0 1 2.21527,-0.935556 v 0 a 8.042446,8.042446 0 0 1 3.80905,1.169446 c 0.11695,0.06683 0.96228,0.591405 1.22959,0.781858 a 15.099217,15.099217 0 0 1 2.8334,2.479225 c 0.39093,-0.390929 0.75513,-0.791882 1.08925,-1.196176 -0.1136,-0.126968 -0.23388,-0.257278 -0.35751,-0.387588 a 18.951705,18.951705 0 0 0 -3.99951,-3.067289 z"
           id="path1298"
           style="fill:#ff0000;fill-opacity:1;stroke-width:0.33412737" />
        <path
           inkscape:connector-curvature="0"
           class="cls-1"
           d="m -154.16912,-35.943314 a 22.512,22.512 0 0 1 -6.96041,-8.899948 13.164,13.164 0 0 1 -0.7966,-7.530404 35.304,35.304 0 0 1 4.1032,-0.168822 8.7360001,8.7360001 0 0 0 0.32859,6.237677 18.558,18.558 0 0 0 5.75424,7.28319 35.724,35.724 0 0 0 8.11076,4.796638 l 0.75365,0.266067 a 30.6,30.6 0 0 1 -2.28152,3.316479 38.952,38.952 0 0 1 -9.01191,-5.300877 z"
           id="path1300"
           style="fill:#ff0000;fill-opacity:1;stroke-width:0.60000002" />
        <path
           inkscape:connector-curvature="0"
           class="cls-1"
           d="m -155.43397,-52.048272 a 9.5827731,9.5827731 0 0 1 4.60428,-1.383287 4.0730128,4.0730128 0 0 1 2.98041,1.10262 15.122605,15.122605 0 0 1 -0.76515,1.436748 2.8166939,2.8166939 0 0 0 -2.21526,-0.935557 v 0 a 8.042446,8.042446 0 0 0 -3.80906,1.169446 c -0.11694,0.06683 -0.96228,0.591405 -1.22958,0.781858 a 15.099217,15.099217 0 0 0 -2.83341,2.479225 c -0.39092,-0.390929 -0.75512,-0.791882 -1.08925,-1.196176 0.11361,-0.126969 0.23389,-0.257278 0.35752,-0.387588 a 18.951705,18.951705 0 0 1 3.9995,-3.067289 z"
           id="path1302"
           style="fill:#ff0000;fill-opacity:1;stroke-width:0.33412737" />
      </g>
      <g
         style="fill:#ff0000"
         transform="matrix(0.58717491,0,0,0.58717491,-61.608222,-31.152651)"
         id="g1328">
        <path
           inkscape:connector-curvature="0"
           class="cls-1"
           d="m -164,-64.82 c 1.56862,1.426122 3.20126,2.140082 4.48821,1.958615 a 2.9031913,2.2397766 0.98145895 0 0 1.49757,-0.665729 4.6223359,3.5660757 0.98145895 0 0 1.15326,-1.654516 58.154906,44.8658 0.98145895 0 0 1.37322,-6.860557 55.35418,42.705075 0.98145895 0 1 -13.39049,-1.659328 0.06831038,0.05270063 0.98145895 0 0 -0.0865,0.05649 25.183761,19.428964 0.98145895 0 0 4.96475,8.825025"
           id="path1306"
           style="fill:#ff0000;fill-opacity:1" />
        <path
           inkscape:connector-curvature="0"
           class="cls-1"
           d="m -171.01559,-55.373231 a 58.68,58.68 0 0 0 5.80004,2.994057 39.14,39.14 0 0 0 3.62258,-4.283381 24.17,24.17 0 0 1 -10.71843,-7.622454 39.55,39.55 0 0 1 -7.9323,-18.280077 67.19,67.19 0 0 1 -0.69279,-17.328481 55.74,55.74 0 0 0 -7.57577,2.177211 76.69,76.69 0 0 0 0.97282,16.41061 52.09,52.09 0 0 0 2.51255,9.33419 32.48,32.48 0 0 0 14.0113,16.598325 z"
           id="path1308"
           style="fill:#ff0000;fill-opacity:1" />
        <path
           inkscape:connector-curvature="0"
           class="cls-1"
           d="m -147.05187,-101.21193 c -0.0632,0.33438 -0.12749,0.67441 -0.18748,0.99177 v 0 c 0,0 0,0 0,0 a 30.718543,30.718543 0 0 1 4.49748,-6.8686 46.025906,46.025906 0 0 1 6.66928,-6.34064 25.585328,25.585328 0 0 0 -4.6994,-1.96842 33.90229,33.90229 0 0 0 -6.27988,14.18589 z"
           id="path1310"
           style="fill:#ff0000;fill-opacity:1;stroke-width:0.57676572" />
        <path
           inkscape:connector-curvature="0"
           class="cls-1"
           d="m -152.34951,-55.373231 a 58.68,58.68 0 0 1 -5.80004,2.994057 39.14,39.14 0 0 1 -3.62258,-4.283381 24.17,24.17 0 0 0 10.71843,-7.622454 39.55,39.55 0 0 0 7.9323,-18.280077 67.19,67.19 0 0 0 0.69279,-17.328481 55.74,55.74 0 0 1 7.57577,2.177211 76.69,76.69 0 0 1 -0.97282,16.41061 52.09,52.09 0 0 1 -2.51255,9.33419 32.48,32.48 0 0 1 -14.0113,16.598325 z"
           id="path1312"
           style="fill:#ff0000;fill-opacity:1" />
        <path
           inkscape:connector-curvature="0"
           class="cls-1"
           d="m -144.39761,-87.164127 -0.43111,1.029715 c -2.16333,-1.262194 -4.43861,-0.144692 -5.72475,0.216956 l -3.14291,1.54779 c 2.74585,-1.404953 -0.74839,-5.943879 -2.38704,-1.692932 1.099,2.865121 3.47972,0.02336 1.78512,-0.735352 -0.41221,-0.184563 -1.04902,-0.416267 -1.78697,0.709595 0.10683,-1.09949 0.16115,-2.437373 2.08527,-2.731645 3.76526,-1.108821 8.11283,0.496874 8.11283,0.496874 1.44074,0.463086 1.39771,1.007261 1.48933,1.158904 z"
           id="path1314"
           style="fill:#ff0000;fill-opacity:1;stroke-width:0.57676572" />
        <path
           inkscape:connector-curvature="0"
           class="cls-1"
           d="m -178.23896,-86.201964 0.51629,0.989756 c 2.04937,-1.439876 4.41067,-0.517931 5.72267,-0.265866 l 3.2621,1.277641 c -2.85441,-1.168749 0.24522,-5.985783 2.23601,-1.887922 -0.85385,2.947487 -3.46541,0.316287 -1.84071,-0.58242 0.3952,-0.218646 1.01024,-0.503123 1.84038,0.556596 -0.19912,-1.086576 -0.36576,-2.41515 -2.30788,-2.546349 -3.84526,-0.787829 -8.04218,1.178256 -8.04218,1.178256 -1.39663,0.582762 -1.30793,1.121378 -1.38646,1.280194 z"
           id="path1316"
           style="fill:#ff0000;fill-opacity:1;stroke-width:0.57676572" />
        <path
           inkscape:connector-curvature="0"
           class="cls-1"
           d="m -176.70721,-101.58117 c 0.0632,0.31745 0.12749,0.64025 0.18748,0.94154 v 0 c 0,0 0,0 0,0 a 26.877499,35.108508 41.18463 0 0 -4.49748,-5.66351 40.270831,52.603435 41.18463 0 0 -6.66928,-4.55361 22.386141,29.241709 41.18463 0 1 4.6994,-3.22762 29.663151,38.747242 41.18463 0 1 6.27988,12.5032 z"
           id="path1318"
           style="fill:#ff0000;fill-opacity:1;stroke-width:0.57676572" />
        <path
           inkscape:connector-curvature="0"
           class="cls-1"
           d="m -155.66268,-102.28332 c -0.0576,0.43902 -0.11612,0.88547 -0.1707,1.30215 v 0 c 0,0 0,0 0,0 a 27.967652,40.332217 0 0 1 4.09473,-9.0182 41.904218,60.430172 0 0 1 6.07203,-8.325 23.294124,33.592511 0 0 0 -4.27857,-2.58446 30.86629,44.51235 0 0 0 -5.71749,18.62551 z"
           id="path1320"
           style="fill:#ff0000;fill-opacity:1;stroke-width:0.63059843" />
        <path
           inkscape:connector-curvature="0"
           class="cls-1"
           d="m -169.58732,-102.65832 c 0.0576,0.43902 0.11612,0.88547 0.1707,1.30215 v 0 c 0,0 0,0 0,0 a 27.967652,40.332217 0 0 0 -4.09473,-9.0182 41.904218,60.430172 0 0 0 -6.07203,-8.325 23.294124,33.592511 0 0 1 4.27857,-2.58446 30.86629,44.51235 0 0 1 5.71749,18.62551 z"
           id="path1322"
           style="fill:#ff0000;fill-opacity:1;stroke-width:0.63059843" />
        <path
           inkscape:connector-curvature="0"
           class="cls-1"
           d="m -162.33732,-105.09939 c 0.0576,0.58773 0.11612,1.1854 0.1707,1.74322 v 0 c 0,0 0,0 0,0 a 27.967652,53.993754 0 0 0 -4.09473,-12.07289 41.904218,80.899392 0 0 0 -6.07203,-11.14489 23.294124,44.97114 0 0 1 4.27857,-3.45988 30.86629,59.589803 0 0 1 5.71749,24.93444 z"
           id="path1324"
           style="fill:#ff0000;fill-opacity:1;stroke-width:0.72962314" />
        <path
           inkscape:connector-curvature="0"
           class="cls-1"
           d="m -161.99592,-105.09939 c -0.0576,0.58773 -0.11612,1.1854 -0.1707,1.74322 v 0 c 0,0 0,0 0,0 a 27.967652,53.993754 0 0 1 4.09473,-12.07289 41.904218,80.899392 0 0 1 6.07203,-11.14489 23.294124,44.97114 0 0 0 -4.27857,-3.45988 30.86629,59.589803 0 0 0 -5.71749,24.93444 z"
           id="path1326"
           style="fill:#ff0000;fill-opacity:1;stroke-width:0.72962314" />
      </g>
    </g>
    <g
       style="fill:#ff0000"
       transform="matrix(0.20113643,0,0,0.1877759,35.350936,83.907961)"
       id="g1450">
      <g
         id="g1338"
         transform="translate(-205,-446.44934)"
         style="fill:#ff0000">
        <rect
           style="fill:#ff0000;fill-opacity:1"
           id="rect1332"
           height="19.610001"
           width="4.8699999"
           y="30.519344"
           x="70.129997"
           class="cls-1" />
        <rect
           transform="matrix(0.99996237,-0.00867479,-0.72637247,0.68730127,0,0)"
           style="fill:#ff0000;fill-opacity:1;stroke-width:0.98174274"
           id="rect1334"
           height="15.986239"
           width="5.7577882"
           y="45.972496"
           x="115.00945"
           class="cls-1" />
        <rect
           transform="matrix(0.99999783,-0.0020838,0.58952276,0.80775176,0,0)"
           style="fill:#ff0000;fill-opacity:1;stroke-width:0.93983561"
           id="rect1336"
           height="15.790957"
           width="5.3419743"
           y="46.429951"
           x="45.319458"
           class="cls-1" />
      </g>
      <g
         transform="translate(14.870003,-352.5)"
         id="g1344"
         style="fill:#ff0000">
        <rect
           style="fill:#ff0000;fill-opacity:1"
           id="rect1340"
           height="19.610001"
           width="4.8699999"
           y="-63.43"
           x="-127.87"
           class="cls-1" />
        <path
           inkscape:connector-curvature="0"
           style="fill:#ff0000;fill-opacity:1"
           id="path1342"
           d="m -125.31809,-71.82 a 2.72,2.72 0 0 0 -2,0.78 2.75,2.75 0 0 0 -0.77,2 2.71,2.71 0 0 0 0.77,2 2.75,2.75 0 0 0 2,0.77 2.79,2.79 0 0 0 2,-0.77 2.72,2.72 0 0 0 0.78,-2 2.75,2.75 0 0 0 -0.78,-2 2.75,2.75 0 0 0 -2,-0.77"
           class="cls-1" />
      </g>
      <path
         inkscape:connector-curvature="0"
         class="cls-1"
         d="m -93.53,-416.3 a 7.6,7.6 0 0 0 -3.35,0.7 6.08,6.08 0 0 0 -2.25,1.76 v 0 c 0,-0.08 -0.52,-1 -1.17,-2.09 h -3.55 v 19.61 H -99 v -11.6 a 3.61,3.61 0 0 1 1.17,-2.85 4.17,4.17 0 0 1 2.86,-1 3.71,3.71 0 0 1 2.7,1 3.83,3.83 0 0 1 1,2.86 v 11.6 h 4.87 v -12.86 a 6.89,6.89 0 0 0 -2,-5.18 7.06,7.06 0 0 0 -5.18,-2"
         id="path1346"
         style="fill:#ff0000;fill-opacity:1" />
      <path
         inkscape:connector-curvature="0"
         class="cls-1"
         d="m -52.33,-416.34773 v 11.68 a 3.57,3.57 0 0 1 -1.17,2.84 4.27,4.27 0 0 1 -2.9,1 3.71,3.71 0 0 1 -2.7,-1 3.76,3.76 0 0 1 -1.05,-2.85 v -11.67 H -65 v 12.93 a 6.92,6.92 0 0 0 2,5.18 7.11,7.11 0 0 0 5.12,1.94 7.77,7.77 0 0 0 3.4,-0.71 6.09,6.09 0 0 0 2.29,-1.83 c 0,0 0.5,1 1.13,2.07 h 3.54 v -19.58 z"
         id="path1348"
         style="fill:#ff0000;fill-opacity:1" />
      <path
         inkscape:connector-curvature="0"
         style="fill:#ff0000;fill-opacity:1"
         id="path1350"
         d="m -32.68,-416.3 a 7.6,7.6 0 0 0 -3.35,0.7 6.08,6.08 0 0 0 -2.25,1.76 v 0 c 0,-0.08 -0.52,-1 -1.17,-2.09 H -43 v 19.61 h 4.85 v -11.6 a 3.61,3.61 0 0 1 1.17,-2.85 4.17,4.17 0 0 1 2.86,-1 3.71,3.71 0 0 1 2.7,1 3.83,3.83 0 0 1 1,2.86 v 11.6 h 4.87 v -12.86 a 6.89,6.89 0 0 0 -2,-5.18 7.06,7.06 0 0 0 -5.18,-2"
         class="cls-1" />
      <g
         transform="translate(4.859171,-259.53328)"
         id="g1356"
         style="fill:#ff0000">
        <rect
           class="cls-1"
           x="-156.1234"
           y="75"
           width="3.4767973"
           height="14"
           id="rect1352"
           style="fill:#ff0000;fill-opacity:1;stroke-width:0.71392143"
           transform="rotate(90)" />
        <path
           inkscape:connector-curvature="0"
           class="cls-1"
           d="m -74.863546,-140.42576 c -0.997922,0.0395 -3.783986,0.14578 -4.512668,-0.47115 -0.735197,-0.68634 -0.840127,-1.77017 -0.773786,-2.72316 V -161.82 H -85 v 19.33769 c -0.08569,1.7429 0.63944,3.43878 2,4.67747 1.379265,1.17768 6.243618,1.07476 8.140829,1.01812"
           id="path1354"
           style="fill:#ff0000;fill-opacity:1;stroke-width:0.95025551" />
      </g>
    </g>
  </g>
</svg>
